<svg width="64" height="64" viewBox="0 0 64 64" fill="none" xmlns="http://www.w3.org/2000/svg">
    <path d="M20.7007 1.1082L20.8808 1.83626L20.7007 1.1082ZM22.5757 0.96117L22.6433 0.214226V0.214226L22.5757 0.96117ZM52.5757 0.997724L52.3408 1.70999L52.5757 0.997724ZM61.5346 1.44995L62.0417 0.897369L61.5346 1.44995ZM62.0909 2.86597L61.3415 2.89387L62.0909 2.86597ZM61.8836 4.74097L61.1575 4.55337L61.8836 4.74097ZM61.83 8.49097L62.5664 8.63302L61.83 8.49097ZM61.8323 15.991L61.0864 16.0692L61.8323 15.991ZM62.0799 21.616L61.3303 21.6398L62.0799 21.616ZM62.1626 23.491L62.9114 23.4488V23.4488L62.1626 23.491ZM61.8759 27.241L61.127 27.281L61.8759 27.241ZM62.1359 29.116L62.8678 28.9521L62.1359 29.116ZM61.8656 34.741L61.1162 34.7108L61.8656 34.741ZM61.9979 42.241L61.2954 42.5036L61.9979 42.241ZM62.0987 45.991L61.3488 46.0041L62.0987 45.991ZM62.0127 47.866L62.7582 47.9475L62.0127 47.866ZM61.767 49.741L61.0256 49.6278L61.767 49.741ZM61.8697 51.616L62.5952 51.4257L61.8697 51.616ZM61.9698 53.491L61.2287 53.3757L61.9698 53.491ZM61.9264 55.366L61.1809 55.4474L61.9264 55.366ZM61.9671 59.116L61.2376 58.9417L61.9671 59.116ZM57.4507 62.1229L57.5566 62.8654L57.4507 62.1229ZM38.7007 62.0408L38.9581 61.3363L38.7007 62.0408ZM36.8257 61.7161L36.84 62.466L36.8257 61.7161ZM34.9507 61.8052L35.0075 62.553L34.9507 61.8052ZM33.0757 62.0791L32.9171 61.346L33.0757 62.0791ZM29.3257 61.7566L29.3882 61.0092L29.3257 61.7566ZM19.9507 62.2752L19.97 61.5254V61.5254L19.9507 62.2752ZM16.2007 62.1465L15.9999 62.8692L16.2007 62.1465ZM6.82568 61.7831L6.9091 61.0378L6.82568 61.7831ZM4.95068 61.7032L4.97067 62.4529L4.95068 61.7032ZM3.07568 61.7911L3.1259 62.5394L3.07568 61.7911ZM1.08736 17.241L0.370795 17.0195L1.08736 17.241ZM1.95068 1.24329L1.80184 1.97838C2.5386 2.12755 3.27767 2.10792 4.01061 1.92144L3.82568 1.19459L3.64075 0.46775C3.1237 0.599304 2.61277 0.612134 2.09952 0.508211L1.95068 1.24329ZM3.82568 1.19459L4.01061 1.92144C4.52151 1.79145 5.02637 1.78467 5.53501 1.89988L5.70068 1.16841L5.86636 0.436933C5.125 0.26902 4.37985 0.279703 3.64075 0.46775L3.82568 1.19459ZM5.70068 1.16841L5.53501 1.89988C6.23731 2.05895 6.94359 2.10381 7.65074 2.03269L7.57568 1.28645L7.50063 0.540217C6.95778 0.594816 6.41405 0.560982 5.86636 0.436933L5.70068 1.16841ZM7.57568 1.28645L7.65074 2.03269C8.27628 1.96977 8.90183 1.90616 9.52738 1.84186L9.45068 1.09579L9.37399 0.349723C8.74954 0.413914 8.12508 0.477412 7.50063 0.540217L7.57568 1.28645ZM9.45068 1.09579L9.52738 1.84186C10.1619 1.77664 10.7963 1.69917 11.4307 1.60948L11.3257 0.866862L11.2207 0.124249C10.6051 0.211296 9.98949 0.286452 9.37399 0.349723L9.45068 1.09579ZM11.3257 0.866862L11.4307 1.60948C12.0058 1.52815 12.58 1.50556 13.1539 1.54143L13.2007 0.792887L13.2475 0.0443468C12.5714 0.00209987 11.8955 0.0288264 11.2207 0.124249L11.3257 0.866862ZM13.2007 0.792887L13.1539 1.54143C13.7522 1.57881 14.3509 1.64831 14.9502 1.75003L15.0757 1.01061L15.2012 0.271188C14.5505 0.160724 13.8992 0.0850717 13.2475 0.0443468L13.2007 0.792887ZM15.0757 1.01061L14.9502 1.75003C15.6431 1.86766 16.3379 1.88862 17.0325 1.81237L16.9507 1.06685L16.8689 0.321326C16.3135 0.382283 15.7583 0.36575 15.2012 0.271188L15.0757 1.01061ZM16.9507 1.06685L17.0325 1.81237C17.5799 1.75229 18.1276 1.77692 18.6782 1.88738L18.8257 1.15204L18.9732 0.416692C18.2738 0.276368 17.5714 0.244209 16.8689 0.321326L16.9507 1.06685ZM18.8257 1.15204L18.6782 1.88738C19.4127 2.03475 20.1496 2.01715 20.8808 1.83626L20.7007 1.1082L20.5206 0.380152C20.0018 0.508489 19.4887 0.52011 18.9732 0.416692L18.8257 1.15204ZM20.7007 1.1082L20.8808 1.83626C21.427 1.70114 21.9683 1.65924 22.508 1.70811L22.5757 0.96117L22.6433 0.214226C21.9331 0.149916 21.2244 0.206035 20.5206 0.380152L20.7007 1.1082ZM22.5757 0.96117L22.508 1.70811C23.1374 1.7651 23.7668 1.81654 24.3961 1.86244L24.4507 1.11443L24.5052 0.366414C23.8846 0.321154 23.264 0.270425 22.6433 0.214226L22.5757 0.96117ZM24.4507 1.11443L24.3961 1.86244C25.0452 1.90978 25.6945 1.92564 26.3437 1.91001L26.3257 1.16022L26.3076 0.410442C25.7069 0.424904 25.1061 0.410234 24.5052 0.366414L24.4507 1.11443ZM26.3257 1.16022L26.3437 1.91001C27.0022 1.89415 27.6602 1.83434 28.3174 1.73075L28.2007 0.989898L28.0839 0.249043C27.4912 0.34246 26.8992 0.3962 26.3076 0.410442L26.3257 1.16022ZM28.2007 0.989898L28.3174 1.73075C28.8641 1.6446 29.4093 1.64563 29.9561 1.73391L30.0757 0.9935L30.1952 0.253087C29.492 0.139556 28.7873 0.13819 28.0839 0.249043L28.2007 0.989898ZM30.0757 0.9935L29.9561 1.73391C30.6484 1.84567 31.3422 1.86218 32.0357 1.78302L31.9507 1.03786L31.8656 0.292697C31.3092 0.356208 30.753 0.343141 30.1952 0.253087L30.0757 0.9935ZM31.9507 1.03786L32.0357 1.78302C32.5865 1.72016 33.1372 1.73915 33.6902 1.84073L33.8257 1.10307L33.9612 0.365416C33.2642 0.237382 32.5649 0.212891 31.8656 0.292697L31.9507 1.03786ZM33.8257 1.10307L33.6902 1.84073C34.3715 1.96588 35.0547 2.01149 35.7386 1.97687L35.7007 1.22783L35.6628 0.478787C35.0967 0.507443 34.5299 0.469887 33.9612 0.365416L33.8257 1.10307ZM35.7007 1.22783L35.7386 1.97687C36.3313 1.94686 36.924 1.95514 37.5169 2.00172L37.5757 1.25402L37.6344 0.506328C36.9773 0.454703 36.32 0.445514 35.6628 0.478787L35.7007 1.22783ZM37.5757 1.25402L37.5169 2.00172C38.1639 2.05255 38.8109 2.07481 39.458 2.06849L39.4507 1.31852L39.4434 0.568557C38.8405 0.574446 38.2375 0.55371 37.6344 0.506328L37.5757 1.25402ZM39.4507 1.31852L39.458 2.06849C40.0911 2.0623 40.7241 2.0459 41.3572 2.01929L41.3257 1.26995L41.2942 0.520612C40.6772 0.546549 40.0603 0.562531 39.4434 0.568557L39.4507 1.31852ZM41.3257 1.26995L41.3572 2.01929C41.9467 1.9945 42.5363 2.01151 43.1262 2.07038L43.2007 1.32408L43.2752 0.577788C42.6151 0.511926 41.9547 0.492844 41.2942 0.520612L41.3257 1.26995ZM43.2007 1.32408L43.1262 2.07038C43.8698 2.14457 44.6076 2.04495 45.332 1.78148L45.0757 1.07665L44.8193 0.371822C44.2937 0.562989 43.7816 0.628324 43.2752 0.577788L43.2007 1.32408ZM45.0757 1.07665L45.332 1.78148C45.8766 1.58341 46.4108 1.49214 46.9387 1.50061L46.9507 0.750704L46.9627 0.000800371C46.2405 -0.0107789 45.5247 0.115256 44.8193 0.371822L45.0757 1.07665ZM46.9507 0.750704L46.9387 1.50061C47.5557 1.5105 48.1727 1.53023 48.7898 1.55979L48.8257 0.810646L48.8616 0.0615053C48.2286 0.0311844 47.5957 0.0109491 46.9627 0.000800371L46.9507 0.750704ZM48.8257 0.810646L48.7898 1.55979C49.449 1.59137 50.1083 1.57779 50.7672 1.5191L50.7007 0.772056L50.6341 0.0250134C50.0431 0.077656 49.4523 0.0898052 48.8616 0.0615053L48.8257 0.810646ZM50.7007 0.772056L50.7672 1.5191C51.2855 1.47294 51.808 1.53429 52.3408 1.70999L52.5757 0.997724L52.8106 0.285456C52.0933 0.0489287 51.3659 -0.0401609 50.6341 0.0250134L50.7007 0.772056ZM52.5757 0.997724L52.3408 1.70999C53.0949 1.95868 53.8619 1.99448 54.6258 1.81101L54.4507 1.08174L54.2755 0.352479C53.7895 0.469204 53.3065 0.448991 52.8106 0.285456L52.5757 0.997724ZM54.4507 1.08174L54.6258 1.81101C55.1862 1.67643 55.7429 1.62039 56.2976 1.64115L56.3257 0.891674L56.3537 0.142199C55.6585 0.116184 54.9652 0.186857 54.2755 0.352479L54.4507 1.08174ZM56.3257 0.891674L56.2976 1.64115C56.9497 1.66555 57.6017 1.65469 58.2536 1.6086L58.2007 0.860468L58.1478 0.112336C57.5497 0.154625 56.9517 0.164574 56.3537 0.142199L56.3257 0.891674ZM58.2007 0.860468L58.2536 1.6086C58.8374 1.56732 59.4211 1.57427 60.0051 1.62947L60.0757 0.882804L60.1463 0.136132C59.4803 0.073178 58.814 0.0652307 58.1478 0.112336L58.2007 0.860468ZM60.0757 0.882804L60.0051 1.62947C60.5209 1.67823 60.8347 1.82561 61.0275 2.00252L61.5346 1.44995L62.0417 0.897369C61.5393 0.436258 60.8805 0.20554 60.1463 0.136132L60.0757 0.882804ZM61.5346 1.44995L61.0275 2.00252C61.1841 2.14628 61.3231 2.4015 61.3415 2.89387L62.0909 2.86597L62.8404 2.83807C62.8122 2.08044 62.5803 1.39164 62.0417 0.897369L61.5346 1.44995ZM62.0909 2.86597L61.3415 2.89387C61.3619 3.44397 61.3014 3.99642 61.1575 4.55337L61.8836 4.74097L62.6098 4.92857C62.7888 4.23552 62.8665 3.53796 62.8404 2.83807L62.0909 2.86597ZM61.8836 4.74097L61.1575 4.55337C60.9683 5.28559 60.9451 6.02423 61.0903 6.76092L61.8261 6.61597L62.562 6.47101C62.4609 5.9577 62.476 5.44634 62.6098 4.92857L61.8836 4.74097ZM61.8261 6.61597L61.0903 6.76092C61.1947 7.29126 61.1958 7.8188 61.0935 8.34891L61.83 8.49097L62.5664 8.63302C62.7052 7.91313 62.7037 7.19068 62.562 6.47101L61.8261 6.61597ZM61.83 8.49097L61.0935 8.34891C60.9595 9.0436 60.9259 9.74086 60.9937 10.4385L61.7402 10.366L62.4867 10.2935C62.433 9.74108 62.4593 9.18833 62.5664 8.63302L61.83 8.49097ZM61.7402 10.366L60.9937 10.4385C61.0528 11.0473 61.0919 11.6559 61.1111 12.2645L61.8607 12.241L62.6103 12.2174C62.5902 11.576 62.5489 10.9347 62.4867 10.2935L61.7402 10.366ZM61.8607 12.241L61.1111 12.2645C61.1298 12.8608 61.1144 13.4572 61.0647 14.0537L61.8121 14.116L62.5595 14.1782C62.6139 13.5248 62.6309 12.8711 62.6103 12.2174L61.8607 12.241ZM61.8121 14.116L61.0647 14.0537C61.0087 14.7256 61.016 15.3976 61.0864 16.0692L61.8323 15.991L62.5783 15.9127C62.5176 15.3343 62.5114 14.7564 62.5595 14.1782L61.8121 14.116ZM61.8323 15.991L61.0864 16.0692C61.1557 16.7294 61.2719 17.3884 61.4346 18.0461L62.1626 17.866L62.8907 17.6858C62.7441 17.0935 62.6401 16.5026 62.5783 15.9127L61.8323 15.991ZM62.1626 17.866L61.4346 18.0461C61.564 18.5692 61.58 19.0866 61.4847 19.6054L62.2223 19.741L62.96 19.8765C63.0943 19.1454 63.0705 18.4128 62.8907 17.6858L62.1626 17.866ZM62.2223 19.741L61.4847 19.6054C61.3603 20.2821 61.3087 20.9606 61.3303 21.6398L62.0799 21.616L62.8295 21.5921C62.8114 21.0214 62.8546 20.4498 62.96 19.8765L62.2223 19.741ZM62.0799 21.616L61.3303 21.6398C61.3504 22.271 61.3782 22.9021 61.4138 23.5332L62.1626 23.491L62.9114 23.4488C62.8765 22.8299 62.8493 22.211 62.8295 21.5921L62.0799 21.616ZM62.1626 23.491L61.4138 23.5332C61.4453 24.0916 61.4032 24.6511 61.2863 25.2134L62.0206 25.366L62.7549 25.5186C62.8979 24.8308 62.9504 24.1403 62.9114 23.4488L62.1626 23.491ZM62.0206 25.366L61.2863 25.2134C61.1435 25.9004 61.09 26.5901 61.127 27.281L61.8759 27.241L62.6248 27.2009C62.5949 26.6418 62.6379 26.0815 62.7549 25.5186L62.0206 25.366ZM61.8759 27.241L61.127 27.281C61.1626 27.9486 61.2552 28.615 61.404 29.2798L62.1359 29.116L62.8678 28.9521C62.7367 28.3669 62.6559 27.7833 62.6248 27.2009L61.8759 27.241ZM62.1359 29.116L61.404 29.2798C61.5144 29.7731 61.4935 30.2641 61.3359 30.7663L62.0515 30.991L62.767 31.2156C63.0018 30.4678 63.0372 29.7088 62.8678 28.9521L62.1359 29.116ZM62.0515 30.991L61.3359 30.7663C61.1123 31.4785 61.026 32.1995 61.0825 32.9243L61.8302 32.866L62.578 32.8077C62.537 32.2824 62.5982 31.7534 62.767 31.2156L62.0515 30.991ZM61.8302 32.866L61.0825 32.9243C61.1289 33.5199 61.1402 34.1153 61.1162 34.7108L61.8656 34.741L62.615 34.7712C62.6413 34.1166 62.629 33.462 62.578 32.8077L61.8302 32.866ZM61.8656 34.741L61.1162 34.7108C61.089 35.384 61.1266 36.0568 61.2286 36.7285L61.9701 36.616L62.7116 36.5034C62.6238 35.9251 62.5917 35.3479 62.615 34.7712L61.8656 34.741ZM61.9701 36.616L61.2286 36.7285C61.3209 37.3368 61.3921 37.9448 61.4423 38.5527L62.1898 38.491L62.9372 38.4292C62.8842 37.7871 62.809 37.1452 62.7116 36.5034L61.9701 36.616ZM62.1898 38.491L61.4423 38.5527C61.4852 39.0723 61.4218 39.5964 61.2452 40.1306L61.9573 40.366L62.6694 40.6013C62.906 39.8855 62.9975 39.1596 62.9372 38.4292L62.1898 38.491ZM61.9573 40.366L61.2452 40.1306C60.9842 40.9202 61.0028 41.7209 61.2954 42.5036L61.9979 42.241L62.7004 41.9783C62.5257 41.511 62.5173 41.0617 62.6694 40.6013L61.9573 40.366ZM61.9979 42.241L61.2954 42.5036C61.4878 43.0181 61.5429 43.5168 61.4728 44.0106L62.2153 44.116L62.9579 44.2214C63.0652 43.4652 62.9754 42.7138 62.7004 41.9783L61.9979 42.241ZM62.2153 44.116L61.4728 44.0106C61.3785 44.6744 61.3371 45.3391 61.3488 46.0041L62.0987 45.991L62.8486 45.9778C62.8383 45.3929 62.8747 44.8075 62.9579 44.2214L62.2153 44.116ZM62.0987 45.991L61.3488 46.0041C61.3592 46.5973 61.332 47.1907 61.2671 47.7845L62.0127 47.866L62.7582 47.9475C62.83 47.2912 62.8601 46.6346 62.8486 45.9778L62.0987 45.991ZM62.0127 47.866L61.2671 47.7845C61.1999 48.3988 61.1195 49.0132 61.0256 49.6278L61.767 49.741L62.5084 49.8542C62.6055 49.2187 62.6887 48.5831 62.7582 47.9475L62.0127 47.866ZM61.767 49.741L61.0256 49.6278C60.9144 50.3562 60.955 51.0844 61.1443 51.8062L61.8697 51.616L62.5952 51.4257C62.4567 50.8975 62.4288 50.3757 62.5084 49.8542L61.767 49.741ZM61.8697 51.616L61.1443 51.8062C61.2826 52.3338 61.3097 52.8548 61.2287 53.3757L61.9698 53.491L62.7109 53.6062C62.8243 52.8771 62.7847 52.1482 62.5952 51.4257L61.8697 51.616ZM61.9698 53.491L61.2287 53.3757C61.1215 54.0654 61.1054 54.7565 61.1809 55.4474L61.9264 55.366L62.672 55.2846C62.611 54.7254 62.6238 54.1665 62.7109 53.6062L61.9698 53.491ZM61.9264 55.366L61.1809 55.4474C61.2485 56.0668 61.3091 56.6862 61.3627 57.3056L62.1099 57.241L62.8571 57.1763C62.8025 56.5457 62.7408 55.9151 62.672 55.2846L61.9264 55.366ZM62.1099 57.241L61.3627 57.3056C61.4096 57.8486 61.3686 58.393 61.2376 58.9417L61.9671 59.116L62.6965 59.2902C62.864 58.589 62.9182 57.8833 62.8571 57.1763L62.1099 57.241ZM61.9671 59.116L61.2376 58.9417C61.0648 59.6652 61.0416 60.3938 61.1698 61.1212L61.9084 60.991L62.647 60.8608C62.5549 60.3381 62.5708 59.8167 62.6965 59.2902L61.9671 59.116ZM61.9084 60.991L61.1698 61.1212C61.1787 61.1715 61.1825 61.2102 61.1836 61.2385C61.1847 61.267 61.1829 61.2815 61.1824 61.2848C61.182 61.2878 61.1833 61.277 61.1917 61.2572C61.2004 61.2367 61.2153 61.2102 61.2387 61.1831C61.2622 61.1559 61.2883 61.1351 61.3126 61.1206C61.3361 61.1066 61.353 61.1014 61.3576 61.1001C61.3618 61.099 61.3549 61.1013 61.3336 61.1026C61.3124 61.1039 61.2804 61.1038 61.2358 61.0998L61.1684 61.8468L61.101 62.5938C61.4952 62.6293 62.0151 62.5786 62.3734 62.1642C62.7202 61.7631 62.7153 61.2478 62.647 60.8608L61.9084 60.991ZM61.1684 61.8468L61.2358 61.0998C60.5783 61.0405 59.9116 61.0518 59.2367 61.1325L59.3257 61.8772L59.4147 62.6219C59.9898 62.5531 60.5516 62.5442 61.101 62.5938L61.1684 61.8468ZM59.3257 61.8772L59.2367 61.1325C58.606 61.2079 57.9754 61.2905 57.3448 61.3805L57.4507 62.1229L57.5566 62.8654C58.176 62.7771 58.7953 62.6959 59.4147 62.6219L59.3257 61.8772ZM57.4507 62.1229L57.3448 61.3805C56.8036 61.4576 56.2632 61.4434 55.7198 61.3371L55.5757 62.0731L55.4316 62.8091C56.1382 62.9475 56.8477 62.9665 57.5566 62.8654L57.4507 62.1229ZM55.5757 62.0731L55.7198 61.3371C55.0746 61.2107 54.4289 61.1119 53.7829 61.0406L53.7007 61.7861L53.6184 62.5315C54.2224 62.5982 54.8268 62.6907 55.4316 62.8091L55.5757 62.0731ZM53.7007 61.7861L53.7829 61.0406C53.1067 60.966 52.4299 60.9614 51.7534 61.0269L51.8257 61.7734L51.898 62.5199C52.4715 62.4644 53.0447 62.4682 53.6184 62.5315L53.7007 61.7861ZM51.8257 61.7734L51.7534 61.0269C51.0914 61.091 50.4307 61.2044 49.7714 61.3668L49.9507 62.095L50.13 62.8233C50.7207 62.6778 51.3099 62.5768 51.898 62.5199L51.8257 61.7734ZM49.9507 62.095L49.7714 61.3668C49.28 61.4877 48.7929 61.474 48.2953 61.3217L48.0757 62.0388L47.8561 62.7559C48.6085 62.9863 49.3713 63.0101 50.13 62.8233L49.9507 62.095ZM48.0757 62.0388L48.2953 61.3217C47.5614 61.0969 46.8175 61.046 46.073 61.1747L46.2007 61.9137L46.3284 62.6528C46.8339 62.5654 47.34 62.5979 47.8561 62.7559L48.0757 62.0388ZM46.2007 61.9137L46.073 61.1747C45.503 61.2732 44.9347 61.3065 44.367 61.2751L44.3257 62.024L44.2843 62.7728C44.9666 62.8105 45.6483 62.7703 46.3284 62.6528L46.2007 61.9137ZM44.3257 62.024L44.367 61.2751C43.7101 61.2388 43.0532 61.2445 42.3964 61.2922L42.4507 62.0403L42.505 62.7883C43.0982 62.7452 43.6912 62.7401 44.2843 62.7728L44.3257 62.024ZM42.4507 62.0403L42.3964 61.2922C41.753 61.3389 41.1098 61.4095 40.4668 61.5038L40.5757 62.2458L40.6845 62.9879C41.2916 62.8989 41.8984 62.8323 42.505 62.7883L42.4507 62.0403ZM40.5757 62.2458L40.4668 61.5038C39.9718 61.5764 39.4725 61.5243 38.9581 61.3363L38.7007 62.0408L38.4433 62.7452C39.1789 63.014 39.9296 63.0986 40.6845 62.9879L40.5757 62.2458ZM38.7007 62.0408L38.9581 61.3363C38.2518 61.0782 37.5348 60.9524 36.8114 60.9662L36.8257 61.7161L36.84 62.466C37.3665 62.4559 37.8996 62.5466 38.4433 62.7452L38.7007 62.0408ZM36.8257 61.7161L36.8114 60.9662C36.1722 60.9784 35.533 61.0088 34.8939 61.0573L34.9507 61.8052L35.0075 62.553C35.6184 62.5066 36.2292 62.4776 36.84 62.466L36.8257 61.7161ZM34.9507 61.8052L34.8939 61.0573C34.234 61.1074 33.575 61.2038 32.9171 61.346L33.0757 62.0791L33.2342 62.8121C33.8264 62.6841 34.4174 62.5978 35.0075 62.553L34.9507 61.8052ZM33.0757 62.0791L32.9171 61.346C32.4023 61.4574 31.8909 61.4519 31.3745 61.3289L31.2007 62.0585L31.0268 62.788C31.7604 62.9628 32.499 62.9711 33.2342 62.8121L33.0757 62.0791ZM31.2007 62.0585L31.3745 61.3289C30.7138 61.1715 30.0516 61.0647 29.3882 61.0092L29.3257 61.7566L29.2631 62.504C29.8497 62.5531 30.4375 62.6476 31.0268 62.788L31.2007 62.0585ZM29.3257 61.7566L29.3882 61.0092C28.722 60.9534 28.0556 60.9529 27.3893 61.0076L27.4507 61.7551L27.512 62.5026C28.0958 62.4547 28.6793 62.4551 29.2631 62.504L29.3257 61.7566ZM27.4507 61.7551L27.3893 61.0076C26.7454 61.0605 26.1018 61.1379 25.4584 61.2397L25.5757 61.9805L25.693 62.7213C26.2996 62.6252 26.9059 62.5523 27.512 62.5026L27.4507 61.7551ZM25.5757 61.9805L25.4584 61.2397C24.8947 61.329 24.3326 61.3471 23.7704 61.2946L23.7007 62.0414L23.6309 62.7881C24.3188 62.8524 25.0066 62.83 25.693 62.7213L25.5757 61.9805ZM23.7007 62.0414L23.7704 61.2946C23.0759 61.2298 22.3817 61.2615 21.6898 61.3889L21.8257 62.1265L21.9616 62.8641C22.5196 62.7613 23.0754 62.7362 23.6309 62.7881L23.7007 62.0414ZM21.8257 62.1265L21.6898 61.3889C21.1151 61.4948 20.5421 61.5401 19.97 61.5254L19.9507 62.2752L19.9314 63.0249C20.6093 63.0423 21.2863 62.9885 21.9616 62.8641L21.8257 62.1265ZM19.9507 62.2752L19.97 61.5254C19.3177 61.5086 18.6655 61.5274 18.0135 61.5816L18.0757 62.329L18.1378 63.0764C18.7358 63.0267 19.3337 63.0095 19.9314 63.0249L19.9507 62.2752ZM18.0757 62.329L18.0135 61.5816C17.48 61.6259 16.9439 61.5746 16.4014 61.4239L16.2007 62.1465L15.9999 62.8692C16.7074 63.0657 17.4214 63.136 18.1378 63.0764L18.0757 62.329ZM16.2007 62.1465L16.4014 61.4239C15.7156 61.2334 15.0254 61.134 14.3324 61.1278L14.3257 61.8777L14.319 62.6277C14.8759 62.6327 15.4358 62.7124 15.9999 62.8692L16.2007 62.1465ZM14.3257 61.8777L14.3324 61.1278C13.6328 61.1215 12.9364 61.2182 12.2452 61.4152L12.4507 62.1365L12.6562 62.8578C13.2149 62.6986 13.7685 62.6228 14.319 62.6277L14.3257 61.8777ZM12.4507 62.1365L12.2452 61.4152C11.7715 61.5501 11.3043 61.5367 10.8222 61.369L10.5757 62.0773L10.3292 62.7856C11.0971 63.0529 11.8799 63.0789 12.6562 62.8578L12.4507 62.1365ZM10.5757 62.0773L10.8222 61.369C10.1061 61.1198 9.37873 61.018 8.64603 61.0715L8.70068 61.8195L8.75534 62.5676C9.27264 62.5298 9.7953 62.5998 10.3292 62.7856L10.5757 62.0773ZM8.70068 61.8195L8.64603 61.0715C8.0672 61.1138 7.48842 61.1026 6.9091 61.0378L6.82568 61.7831L6.74227 62.5285C7.41295 62.6035 8.08417 62.6166 8.75534 62.5676L8.70068 61.8195ZM6.82568 61.7831L6.9091 61.0378C6.24998 60.964 5.59043 60.9359 4.9307 60.9535L4.95068 61.7032L4.97067 62.4529C5.56094 62.4372 6.15139 62.4623 6.74227 62.5285L6.82568 61.7831ZM4.95068 61.7032L4.9307 60.9535C4.29559 60.9704 3.66051 61.0002 3.02546 61.0428L3.07568 61.7911L3.1259 62.5394C3.74085 62.4981 4.35577 62.4693 4.97067 62.4529L4.95068 61.7032ZM3.07568 61.7911L3.02546 61.0428C2.47684 61.0796 2.09383 61.0117 1.83405 60.8948L1.52633 61.5787L1.21861 62.2627C1.77463 62.5129 2.42453 62.5865 3.1259 62.5394L3.07568 61.7911ZM1.52633 61.5787L1.83405 60.8948C1.79472 60.8771 1.78021 60.8618 1.76391 60.8261C1.73931 60.7723 1.706 60.6488 1.72052 60.4118L0.971922 60.366L0.223326 60.3201C0.199545 60.7082 0.239482 61.0993 0.399691 61.4497C0.568188 61.8183 0.850034 62.0969 1.21861 62.2627L1.52633 61.5787ZM0.971922 60.366L1.72052 60.4118C1.75727 59.8121 1.82448 59.212 1.92225 58.6115L1.18199 58.491L0.441738 58.3705C0.336011 59.0199 0.263175 59.6698 0.223326 60.3201L0.971922 60.366ZM1.18199 58.491L1.92225 58.6115C2.03044 57.9469 2.08433 57.2813 2.08364 56.6152L1.33364 56.616L0.583644 56.6167C0.584248 57.2006 0.537043 57.785 0.441738 58.3705L1.18199 58.491ZM1.33364 56.616L2.08364 56.6152C2.0829 55.899 1.95399 55.1889 1.70299 54.4881L0.996909 54.741L0.290827 54.9939C0.48751 55.543 0.583091 56.0829 0.583644 56.6167L1.33364 56.616ZM0.996909 54.741L1.70299 54.4881C1.53089 54.0076 1.5159 53.5432 1.65078 53.0726L0.929795 52.866L0.208813 52.6594C-0.01451 53.4387 0.0152378 54.2244 0.290827 54.9939L0.996909 54.741ZM0.929795 52.866L1.65078 53.0726C1.85443 52.3619 1.92584 51.6441 1.86087 50.9236L1.1139 50.991L0.366929 51.0583C0.414685 51.5879 0.363361 52.12 0.208813 52.6594L0.929795 52.866ZM1.1139 50.991L1.86087 50.9236C1.81044 50.3645 1.83352 49.8052 1.93072 49.244L1.19172 49.116L0.452719 48.988C0.333425 49.6768 0.30462 50.3674 0.366929 51.0583L1.1139 50.991ZM1.19172 49.116L1.93072 49.244C2.05842 48.5066 2.01846 47.769 1.81472 47.0393L1.09235 47.241L0.369971 47.4426C0.515222 47.9629 0.541509 48.4753 0.452719 48.988L1.19172 49.116ZM1.09235 47.241L1.81472 47.0393C1.66027 46.4861 1.59464 45.9384 1.61481 45.3937L0.865328 45.366L0.115842 45.3382C0.0897183 46.0435 0.175431 46.7458 0.369971 47.4426L1.09235 47.241ZM0.865328 45.366L1.61481 45.3937C1.63621 44.8161 1.7121 44.237 1.84317 43.656L1.11156 43.491L0.379952 43.3259C0.229015 43.9949 0.140745 44.6659 0.115842 45.3382L0.865328 45.366ZM1.11156 43.491L1.84317 43.656C1.99667 42.9757 2.07031 42.2926 2.06295 41.6079L1.31299 41.616L0.563037 41.624C0.569116 42.1894 0.508467 42.7563 0.379952 43.3259L1.11156 43.491ZM1.31299 41.616L2.06295 41.6079C2.05637 40.9955 2.06517 40.383 2.08936 39.7706L1.33995 39.741L0.590533 39.7114C0.565347 40.3489 0.556182 40.9865 0.563037 41.624L1.31299 41.616ZM1.33995 39.741L2.08936 39.7706C2.11615 39.0925 2.07138 38.4152 1.95557 37.7393L1.21634 37.866L0.477118 37.9926C0.575493 38.5668 0.613129 39.1394 0.590533 39.7114L1.33995 39.741ZM1.21634 37.866L1.95557 37.7393C1.85417 37.1475 1.79381 36.5565 1.77428 35.9662L1.02469 35.991L0.275096 36.0158C0.296921 36.6754 0.364335 37.3344 0.477118 37.9926L1.21634 37.866ZM1.02469 35.991L1.77428 35.9662C1.7526 35.3111 1.69163 34.6565 1.5915 34.0025L0.850139 34.116L0.108777 34.2295C0.200014 34.8254 0.25541 35.4208 0.275096 36.0158L1.02469 35.991ZM0.850139 34.116L1.5915 34.0025C1.504 33.4309 1.47934 32.8606 1.51714 32.2906L0.768782 32.241L0.0204256 32.1913C-0.0246675 32.8713 0.0049094 33.551 0.108777 34.2295L0.850139 34.116ZM0.768782 32.241L1.51714 32.2906C1.55778 31.6778 1.61343 31.0649 1.68411 30.4519L0.939043 30.366L0.193979 30.2801C0.120534 30.9171 0.0626796 31.5542 0.0204256 32.1913L0.768782 32.241ZM0.939043 30.366L1.68411 30.4519C1.76101 29.7849 1.7811 29.1173 1.74424 28.4496L0.995381 28.491L0.246522 28.5323C0.278668 29.1146 0.261195 29.6971 0.193979 30.2801L0.939043 30.366ZM0.995381 28.491L1.74424 28.4496C1.71055 27.8392 1.69472 27.2288 1.69678 26.6185L0.946781 26.616L0.196785 26.6134C0.194635 27.2531 0.211215 27.8927 0.246522 28.5323L0.995381 28.491ZM0.946781 26.616L1.69678 26.6185C1.69892 25.9817 1.68604 25.3449 1.65814 24.7081L0.908861 24.741L0.159579 24.7738C0.186445 25.387 0.198846 26.0002 0.196785 26.6134L0.946781 26.616ZM0.908861 24.741L1.65814 24.7081C1.63424 24.1626 1.69549 23.6145 1.84463 23.0611L1.12047 22.866L0.396308 22.6708C0.208542 23.3675 0.128717 24.0693 0.159579 24.7738L0.908861 24.741ZM1.12047 22.866L1.84463 23.0611C2.03989 22.3367 2.08124 21.6051 1.9652 20.8735L1.22446 20.991L0.483716 21.1084C0.565926 21.6268 0.537944 22.1453 0.396308 22.6708L1.12047 22.866ZM1.22446 20.991L1.9652 20.8735C1.86647 20.251 1.77093 19.6284 1.67859 19.0059L0.93671 19.116L0.194827 19.226C0.287903 19.8535 0.3842 20.481 0.483716 21.1084L1.22446 20.991ZM0.93671 19.116L1.67859 19.0059C1.60294 18.4959 1.64271 17.9841 1.80393 17.4624L1.08736 17.241L0.370795 17.0195C0.145729 17.7478 0.0850673 18.486 0.194827 19.226L0.93671 19.116ZM1.08736 17.241L1.80393 17.4624C2.04704 16.6757 2.01977 15.8806 1.72972 15.1037L1.02709 15.366L0.324453 15.6283C0.50105 16.1013 0.513961 16.5562 0.370795 17.0195L1.08736 17.241ZM1.02709 15.366L1.72972 15.1037C1.53809 14.5903 1.48457 14.0929 1.5571 13.6002L0.815098 13.491L0.0730929 13.3818C-0.0383666 14.139 0.0494453 14.8916 0.324453 15.6283L1.02709 15.366ZM0.815098 13.491L1.5571 13.6002C1.65957 12.904 1.6613 12.2066 1.56222 11.5103L0.819697 11.616L0.0771752 11.7216C0.155955 12.2753 0.154611 12.8279 0.0730929 13.3818L0.815098 13.491ZM0.819697 11.616L1.56222 11.5103C1.49016 11.0039 1.53559 10.4948 1.70596 9.97428L0.993168 9.74097L0.280381 9.50766C0.0415903 10.2372 -0.0286235 10.9781 0.0771752 11.7216L0.819697 11.616ZM0.993168 9.74097L1.70596 9.97428C1.93523 9.27384 2.04588 8.56553 2.03306 7.85249L1.28318 7.86597L0.5333 7.87945C0.542953 8.41641 0.460265 8.95809 0.280381 9.50766L0.993168 9.74097ZM1.28318 7.86597L2.03306 7.85249C2.02066 7.16317 1.9205 6.4765 1.73444 5.79376L1.01083 5.99097L0.287219 6.18817C0.441814 6.75543 0.523219 7.31876 0.5333 7.87945L1.28318 7.86597ZM1.01083 5.99097L1.73444 5.79376C1.59181 5.27042 1.56493 4.75437 1.65023 4.23825L0.910264 4.11597L0.1703 3.99368C0.0490188 4.72756 0.0891834 5.46151 0.287219 6.18817L1.01083 5.99097ZM0.910264 4.11597L1.65023 4.23825C1.76639 3.53534 1.77067 2.83074 1.66291 2.12739L0.921562 2.24097L0.180212 2.35455C0.263963 2.9012 0.260713 3.44659 0.1703 3.99368L0.910264 4.11597ZM0.921562 2.24097L1.66291 2.12739C1.61675 1.82608 1.59619 1.61795 1.59302 1.48824C1.59139 1.42173 1.59514 1.4009 1.59372 1.40983C1.59287 1.41513 1.58817 1.44391 1.57247 1.48578C1.55791 1.5246 1.52187 1.6073 1.44175 1.69245L0.895556 1.17847L0.349364 0.664488C0.167872 0.857354 0.126181 1.08738 0.112424 1.17367C0.0935631 1.29197 0.0907614 1.41437 0.0934679 1.52494C0.0989618 1.7494 0.130619 2.03085 0.180212 2.35455L0.921562 2.24097ZM0.895556 1.17847L1.44175 1.69245C1.35191 1.78791 1.25856 1.83209 1.20974 1.85109C1.15897 1.87084 1.12218 1.8766 1.11215 1.87804C1.09414 1.88062 1.10793 1.87682 1.17216 1.88076C1.29636 1.88839 1.50082 1.91743 1.80184 1.97838L1.95068 1.24329L2.09952 0.508211C1.77554 0.442611 1.49166 0.397563 1.26414 0.383585C1.15252 0.376727 1.02462 0.375233 0.899076 0.393248C0.807716 0.406359 0.551624 0.449551 0.349364 0.664488L0.895556 1.17847Z" fill="#C4E719"/>
</svg>
